<?xml version="1.0" encoding="UTF-8" standalone="no"?><svg xmlns="http://www.w3.org/2000/svg" xmlns:xlink="http://www.w3.org/1999/xlink" fill="#000000" height="353.5" preserveAspectRatio="xMidYMid meet" version="1" viewBox="36.9 223.2 926.1 353.5" width="926.1" zoomAndPan="magnify"><g><g id="change1_1"><path d="M 513.398438 381.484375 L 486.601562 381.484375 L 486.601562 434.476562 L 498.015625 434.476562 L 498.015625 482.101562 L 501.984375 482.101562 L 501.984375 434.476562 L 513.398438 434.476562 L 513.398438 381.484375" fill="#8b527a"/></g><g id="change1_2"><path d="M 713.25 489.972656 L 701.835938 489.972656 L 701.835938 540.980469 L 697.867188 540.980469 L 697.867188 489.972656 L 686.457031 489.972656 L 686.457031 376.84375 L 697.867188 376.84375 L 697.867188 351.636719 L 701.835938 351.636719 L 701.835938 376.84375 L 713.25 376.84375 L 713.25 489.972656" fill="#8b527a"/></g><g id="change1_3"><path d="M 563.359375 273.835938 L 563.359375 330.402344 L 551.949219 330.402344 L 551.949219 412.570312 L 547.980469 412.570312 L 547.980469 330.402344 L 536.566406 330.402344 L 536.566406 273.835938 L 547.980469 273.835938 L 547.980469 223.226562 L 551.949219 223.226562 L 551.949219 273.835938 L 563.359375 273.835938" fill="#8b527a"/></g><g id="change1_4"><path d="M 613.324219 390.765625 L 601.910156 390.765625 L 601.910156 401.835938 L 597.941406 401.835938 L 597.941406 390.765625 L 586.527344 390.765625 L 586.527344 371.484375 L 597.941406 371.484375 L 597.941406 290.722656 L 601.910156 290.722656 L 601.910156 371.484375 L 613.324219 371.484375 L 613.324219 390.765625" fill="#8b527a"/></g><g id="change2_1"><path d="M 763.214844 496.011719 L 751.800781 496.011719 L 751.800781 576.773438 L 747.832031 576.773438 L 747.832031 496.011719 L 736.417969 496.011719 L 736.417969 476.730469 L 747.832031 476.730469 L 747.832031 465.664062 L 751.800781 465.664062 L 751.800781 476.730469 L 763.214844 476.730469 L 763.214844 496.011719" fill="#43a441"/></g><g id="change1_5"><path d="M 663.285156 424.476562 L 636.492188 424.476562 L 636.492188 371.484375 L 647.90625 371.484375 L 647.90625 290.722656 L 651.875 290.722656 L 651.875 371.484375 L 663.285156 371.484375 L 663.285156 424.476562" fill="#8b527a"/></g><g id="change2_2"><path d="M 863.140625 418.515625 L 836.34375 418.515625 L 836.34375 365.523438 L 847.757812 365.523438 L 847.757812 317.898438 L 851.726562 317.898438 L 851.726562 365.523438 L 863.140625 365.523438 L 863.140625 418.515625" fill="#43a441"/></g><g id="change2_3"><path d="M 813.175781 486.371094 L 786.382812 486.371094 L 786.382812 433.378906 L 797.792969 433.378906 L 797.792969 352.617188 L 801.765625 352.617188 L 801.765625 433.378906 L 813.175781 433.378906 L 813.175781 486.371094" fill="#43a441"/></g><g id="change1_6"><path d="M 936.273438 505.804688 L 936.273438 392.675781 L 947.683594 392.675781 L 947.683594 383.035156 L 951.652344 383.035156 L 951.652344 392.675781 L 963.066406 392.675781 L 963.066406 505.804688 L 951.652344 505.804688 L 951.652344 572.378906 L 947.683594 572.378906 L 947.683594 505.804688 L 936.273438 505.804688" fill="#8b527a"/></g><g id="change1_7"><path d="M 886.308594 486.75 L 886.308594 430.1875 L 897.71875 430.1875 L 897.71875 348.019531 L 901.691406 348.019531 L 901.691406 430.1875 L 913.101562 430.1875 L 913.101562 486.75 L 901.691406 486.75 L 901.691406 537.363281 L 897.71875 537.363281 L 897.71875 486.75 L 886.308594 486.75" fill="#8b527a"/></g><g id="change2_4"><path d="M 363.507812 310.027344 L 352.09375 310.027344 L 352.09375 259.019531 L 348.125 259.019531 L 348.125 310.027344 L 336.714844 310.027344 L 336.714844 423.15625 L 348.125 423.15625 L 348.125 448.363281 L 352.09375 448.363281 L 352.09375 423.15625 L 363.507812 423.15625 L 363.507812 310.027344" fill="#43a441"/></g><g id="change1_8"><path d="M 213.617188 526.164062 L 213.617188 469.597656 L 202.207031 469.597656 L 202.207031 387.429688 L 198.234375 387.429688 L 198.234375 469.597656 L 186.824219 469.597656 L 186.824219 526.164062 L 198.234375 526.164062 L 198.234375 576.773438 L 202.207031 576.773438 L 202.207031 526.164062 L 213.617188 526.164062" fill="#8b527a"/></g><g id="change2_5"><path d="M 263.582031 409.234375 L 252.167969 409.234375 L 252.167969 398.164062 L 248.199219 398.164062 L 248.199219 409.234375 L 236.785156 409.234375 L 236.785156 428.515625 L 248.199219 428.515625 L 248.199219 509.277344 L 252.167969 509.277344 L 252.167969 428.515625 L 263.582031 428.515625 L 263.582031 409.234375" fill="#43a441"/></g><g id="change2_6"><path d="M 413.46875 303.988281 L 402.058594 303.988281 L 402.058594 223.226562 L 398.089844 223.226562 L 398.089844 303.988281 L 386.675781 303.988281 L 386.675781 323.269531 L 398.089844 323.269531 L 398.089844 334.335938 L 402.058594 334.335938 L 402.058594 323.269531 L 413.46875 323.269531 L 413.46875 303.988281" fill="#43a441"/></g><g id="change2_7"><path d="M 313.542969 375.523438 L 286.75 375.523438 L 286.75 428.515625 L 298.160156 428.515625 L 298.160156 509.277344 L 302.132812 509.277344 L 302.132812 428.515625 L 313.542969 428.515625 L 313.542969 375.523438" fill="#43a441"/></g><g id="change1_9"><path d="M 463.433594 313.628906 L 436.640625 313.628906 L 436.640625 366.621094 L 448.050781 366.621094 L 448.050781 447.382812 L 452.023438 447.382812 L 452.023438 366.621094 L 463.433594 366.621094 L 463.433594 313.628906" fill="#8b527a"/></g><g id="change1_10"><path d="M 136.859375 505.804688 L 136.859375 392.675781 L 148.273438 392.675781 L 148.273438 383.035156 L 152.242188 383.035156 L 152.242188 392.675781 L 163.65625 392.675781 L 163.65625 505.804688 L 152.242188 505.804688 L 152.242188 572.378906 L 148.273438 572.378906 L 148.273438 505.804688 L 136.859375 505.804688" fill="#8b527a"/></g><g id="change1_11"><path d="M 86.898438 486.75 L 86.898438 430.1875 L 98.308594 430.1875 L 98.308594 348.019531 L 102.277344 348.019531 L 102.277344 430.1875 L 113.691406 430.1875 L 113.691406 486.75 L 102.277344 486.75 L 102.277344 537.363281 L 98.308594 537.363281 L 98.308594 486.75 L 86.898438 486.75" fill="#8b527a"/></g><g id="change1_12"><path d="M 36.933594 369.820312 L 48.347656 369.820312 L 48.347656 358.753906 L 52.316406 358.753906 L 52.316406 369.820312 L 63.726562 369.820312 L 63.726562 389.101562 L 52.316406 389.101562 L 52.316406 469.863281 L 48.347656 469.863281 L 48.347656 389.101562 L 36.933594 389.101562 L 36.933594 369.820312" fill="#8b527a"/></g></g></svg>